<svg xmlns="http://www.w3.org/2000/svg" viewBox="0 0 294 300" width="100%" height="100%">
  <path d="M 258 163 L 258 162 L 256 162 L 256 161 L 254 161 L 254 160 L 243 160 L 243 161 L 240 161 L 240 162 L 238 162 L 238 163 L 237 163 L 237 164 L 236 164 L 236 165 L 235 165 L 235 166 L 234 166 L 234 167 L 233 167 L 233 169 L 232 169 L 232 171 L 231 171 L 231 174 L 230 174 L 230 181 L 231 181 L 231 185 L 232 185 L 232 187 L 233 187 L 233 188 L 234 188 L 234 189 L 235 189 L 235 191 L 236 191 L 236 192 L 238 192 L 238 193 L 239 193 L 239 194 L 241 194 L 241 195 L 244 195 L 244 196 L 252 196 L 252 195 L 255 195 L 255 194 L 257 194 L 257 193 L 259 193 L 259 192 L 260 192 L 260 191 L 261 191 L 261 190 L 262 190 L 262 189 L 263 189 L 263 187 L 264 187 L 264 185 L 265 185 L 265 183 L 266 183 L 266 173 L 265 173 L 265 170 L 264 170 L 264 168 L 263 168 L 263 167 L 262 167 L 262 166 L 261 166 L 261 165 L 260 165 L 260 164 L 259 164 L 259 163 Z M 7 110 L 8 110 L 8 105 L 9 105 L 9 100 L 10 100 L 10 94 L 11 94 L 11 89 L 12 89 L 12 84 L 13 84 L 13 79 L 14 79 L 14 73 L 15 73 L 15 68 L 16 68 L 16 63 L 17 63 L 17 58 L 18 58 L 18 52 L 19 52 L 19 47 L 20 47 L 20 42 L 21 42 L 21 36 L 22 36 L 22 31 L 23 31 L 23 27 L 24 27 L 24 25 L 25 25 L 25 23 L 26 23 L 26 22 L 27 22 L 27 21 L 28 21 L 28 19 L 29 19 L 29 18 L 31 18 L 31 17 L 32 17 L 32 16 L 33 16 L 33 15 L 35 15 L 35 14 L 37 14 L 37 13 L 40 13 L 40 12 L 45 12 L 45 11 L 51 11 L 51 10 L 57 10 L 57 9 L 63 9 L 63 8 L 69 8 L 69 7 L 74 7 L 74 6 L 80 6 L 80 5 L 86 5 L 86 4 L 92 4 L 92 3 L 98 3 L 98 2 L 104 2 L 104 1 L 190 1 L 190 2 L 196 2 L 196 3 L 202 3 L 202 4 L 208 4 L 208 5 L 214 5 L 214 6 L 220 6 L 220 7 L 226 7 L 226 8 L 232 8 L 232 9 L 238 9 L 238 10 L 243 10 L 243 11 L 249 11 L 249 12 L 254 12 L 254 13 L 257 13 L 257 14 L 259 14 L 259 15 L 261 15 L 261 16 L 262 16 L 262 17 L 264 17 L 264 18 L 265 18 L 265 19 L 266 19 L 266 20 L 267 20 L 267 22 L 268 22 L 268 23 L 269 23 L 269 25 L 270 25 L 270 27 L 271 27 L 271 30 L 272 30 L 272 35 L 273 35 L 273 41 L 274 41 L 274 46 L 275 46 L 275 51 L 276 51 L 276 57 L 277 57 L 277 62 L 278 62 L 278 67 L 279 67 L 279 73 L 280 73 L 280 78 L 281 78 L 281 83 L 282 83 L 282 88 L 283 88 L 283 94 L 284 94 L 284 99 L 285 99 L 285 104 L 286 104 L 286 110 L 287 110 L 287 115 L 288 115 L 288 120 L 289 120 L 289 125 L 290 125 L 290 131 L 291 131 L 291 136 L 292 136 L 292 141 L 293 141 L 293 149 L 294 149 L 294 160 L 293 160 L 293 168 L 292 168 L 292 172 L 291 172 L 291 176 L 290 176 L 290 181 L 289 181 L 289 185 L 288 185 L 288 189 L 287 189 L 287 193 L 286 193 L 286 197 L 285 197 L 285 202 L 284 202 L 284 206 L 283 206 L 283 210 L 282 210 L 282 214 L 281 214 L 281 218 L 280 218 L 280 222 L 279 222 L 279 227 L 278 227 L 278 231 L 277 231 L 277 235 L 276 235 L 276 239 L 275 239 L 275 243 L 274 243 L 274 245 L 273 245 L 273 246 L 272 246 L 272 247 L 271 247 L 271 248 L 269 248 L 269 249 L 225 249 L 225 299 L 206 299 L 206 258 L 88 258 L 88 299 L 69 299 L 69 249 L 25 249 L 25 248 L 23 248 L 23 247 L 22 247 L 22 246 L 21 246 L 21 245 L 20 245 L 20 243 L 19 243 L 19 239 L 18 239 L 18 235 L 17 235 L 17 231 L 16 231 L 16 226 L 15 226 L 15 222 L 14 222 L 14 218 L 13 218 L 13 214 L 12 214 L 12 210 L 11 210 L 11 205 L 10 205 L 10 201 L 9 201 L 9 197 L 8 197 L 8 193 L 7 193 L 7 189 L 6 189 L 6 184 L 5 184 L 5 180 L 4 180 L 4 176 L 3 176 L 3 172 L 2 172 L 2 167 L 1 167 L 1 156 L 0 156 L 0 153 L 1 153 L 1 142 L 2 142 L 2 136 L 3 136 L 3 131 L 4 131 L 4 126 L 5 126 L 5 121 L 6 121 L 6 116 L 7 116 Z M 26 121 L 25 121 L 25 126 L 26 126 L 26 128 L 27 128 L 27 129 L 28 129 L 28 130 L 29 130 L 29 131 L 30 131 L 30 132 L 33 132 L 33 133 L 91 133 L 91 132 L 93 132 L 93 131 L 94 131 L 94 130 L 95 130 L 95 129 L 96 129 L 96 27 L 95 27 L 95 26 L 94 26 L 94 25 L 92 25 L 92 24 L 85 24 L 85 25 L 77 25 L 77 26 L 69 26 L 69 27 L 61 27 L 61 28 L 54 28 L 54 29 L 46 29 L 46 30 L 43 30 L 43 31 L 41 31 L 41 32 L 40 32 L 40 34 L 39 34 L 39 40 L 38 40 L 38 46 L 37 46 L 37 52 L 36 52 L 36 58 L 35 58 L 35 64 L 34 64 L 34 70 L 33 70 L 33 77 L 32 77 L 32 83 L 31 83 L 31 89 L 30 89 L 30 96 L 29 96 L 29 102 L 28 102 L 28 108 L 27 108 L 27 114 L 26 114 Z M 28 182 L 29 182 L 29 185 L 30 185 L 30 187 L 31 187 L 31 189 L 32 189 L 32 190 L 33 190 L 33 191 L 34 191 L 34 192 L 36 192 L 36 193 L 37 193 L 37 194 L 39 194 L 39 195 L 42 195 L 42 196 L 50 196 L 50 195 L 53 195 L 53 194 L 55 194 L 55 193 L 56 193 L 56 192 L 58 192 L 58 191 L 59 191 L 59 190 L 60 190 L 60 188 L 61 188 L 61 187 L 62 187 L 62 185 L 63 185 L 63 182 L 64 182 L 64 174 L 63 174 L 63 171 L 62 171 L 62 169 L 61 169 L 61 167 L 60 167 L 60 166 L 59 166 L 59 165 L 58 165 L 58 164 L 57 164 L 57 163 L 56 163 L 56 162 L 54 162 L 54 161 L 52 161 L 52 160 L 41 160 L 41 161 L 38 161 L 38 162 L 36 162 L 36 163 L 35 163 L 35 164 L 34 164 L 34 165 L 33 165 L 33 166 L 32 166 L 32 167 L 31 167 L 31 169 L 30 169 L 30 171 L 29 171 L 29 173 L 28 173 Z M 97 221 L 97 222 L 96 222 L 96 240 L 198 240 L 198 221 Z" fill="white" fill-rule="evenodd" />
</svg>
